<mxfile host="app.diagrams.net" modified="2022-08-15T13:13:48.499Z" agent="5.0 (Windows NT 10.0; Win64; x64) AppleWebKit/537.36 (KHTML, like Gecko) Chrome/104.0.0.0 Safari/537.36" etag="AQ3_hBfrxNTX0U_i10RZ" version="20.2.3" type="github" pages="6">
  <diagram id="ZD6DFtlL-ZESHrznIGLz" name="Singleton">
    <mxGraphModel dx="1350" dy="463" grid="1" gridSize="10" guides="1" tooltips="1" connect="1" arrows="1" fold="1" page="1" pageScale="1" pageWidth="827" pageHeight="1169" background="none" math="0" shadow="0">
      <root>
        <mxCell id="0" />
        <mxCell id="1" parent="0" />
        <mxCell id="8QsqYQfBhwBoFaBJF0qV-10" value="SingletonDB" style="swimlane;fontStyle=0;align=center;verticalAlign=top;childLayout=stackLayout;horizontal=1;startSize=26;horizontalStack=0;resizeParent=1;resizeLast=0;collapsible=1;marginBottom=0;rounded=0;shadow=0;strokeWidth=1;" parent="1" vertex="1">
          <mxGeometry x="90" y="130" width="180" height="140" as="geometry">
            <mxRectangle x="-10" y="90" width="180" height="26" as="alternateBounds" />
          </mxGeometry>
        </mxCell>
        <mxCell id="8QsqYQfBhwBoFaBJF0qV-11" value="+ connection: Connection" style="text;align=left;verticalAlign=top;spacingLeft=4;spacingRight=4;overflow=hidden;rotatable=0;points=[[0,0.5],[1,0.5]];portConstraint=eastwest;" parent="8QsqYQfBhwBoFaBJF0qV-10" vertex="1">
          <mxGeometry y="26" width="180" height="24" as="geometry" />
        </mxCell>
        <mxCell id="8QsqYQfBhwBoFaBJF0qV-12" value="" style="line;html=1;strokeWidth=1;align=left;verticalAlign=middle;spacingTop=-1;spacingLeft=3;spacingRight=3;rotatable=0;labelPosition=right;points=[];portConstraint=eastwest;" parent="8QsqYQfBhwBoFaBJF0qV-10" vertex="1">
          <mxGeometry y="50" width="180" height="8" as="geometry" />
        </mxCell>
        <mxCell id="8QsqYQfBhwBoFaBJF0qV-13" value="- SingletonDB()" style="text;align=left;verticalAlign=top;spacingLeft=4;spacingRight=4;overflow=hidden;rotatable=0;points=[[0,0.5],[1,0.5]];portConstraint=eastwest;" parent="8QsqYQfBhwBoFaBJF0qV-10" vertex="1">
          <mxGeometry y="58" width="180" height="20" as="geometry" />
        </mxCell>
        <mxCell id="EgOAhWPT0fsDFD75-pq3-1" style="edgeStyle=orthogonalEdgeStyle;rounded=0;orthogonalLoop=1;jettySize=auto;html=1;exitX=1;exitY=0.5;exitDx=0;exitDy=0;endArrow=open;endFill=0;" parent="8QsqYQfBhwBoFaBJF0qV-10" source="8QsqYQfBhwBoFaBJF0qV-14" edge="1">
          <mxGeometry relative="1" as="geometry">
            <mxPoint x="180" y="10" as="targetPoint" />
            <Array as="points">
              <mxPoint x="180" y="110" />
              <mxPoint x="270" y="110" />
              <mxPoint x="270" y="10" />
              <mxPoint x="180" y="10" />
            </Array>
          </mxGeometry>
        </mxCell>
        <mxCell id="8QsqYQfBhwBoFaBJF0qV-14" value="+ getInstance(): Connection" style="text;align=left;verticalAlign=top;spacingLeft=4;spacingRight=4;overflow=hidden;rotatable=0;points=[[0,0.5],[1,0.5]];portConstraint=eastwest;" parent="8QsqYQfBhwBoFaBJF0qV-10" vertex="1">
          <mxGeometry y="78" width="180" height="26" as="geometry" />
        </mxCell>
        <mxCell id="8QsqYQfBhwBoFaBJF0qV-15" value="+ qyery(String): void" style="text;align=left;verticalAlign=top;spacingLeft=4;spacingRight=4;overflow=hidden;rotatable=0;points=[[0,0.5],[1,0.5]];portConstraint=eastwest;" parent="8QsqYQfBhwBoFaBJF0qV-10" vertex="1">
          <mxGeometry y="104" width="180" height="26" as="geometry" />
        </mxCell>
      </root>
    </mxGraphModel>
  </diagram>
  <diagram id="QAmtzzWCP81K9fd31Nl3" name="Prototype">
    <mxGraphModel dx="3100" dy="926" grid="1" gridSize="10" guides="1" tooltips="1" connect="1" arrows="1" fold="1" page="0" pageScale="1" pageWidth="827" pageHeight="1169" math="0" shadow="0">
      <root>
        <mxCell id="0" />
        <mxCell id="1" parent="0" />
        <mxCell id="ER7kpOh2NUuJ_rXaCPQg-1" value="Student" style="swimlane;fontStyle=0;align=center;verticalAlign=top;childLayout=stackLayout;horizontal=1;startSize=26;horizontalStack=0;resizeParent=1;resizeLast=0;collapsible=1;marginBottom=0;rounded=0;shadow=0;strokeWidth=1;" parent="1" vertex="1">
          <mxGeometry x="1110" y="110" width="320" height="390" as="geometry">
            <mxRectangle x="230" y="140" width="160" height="26" as="alternateBounds" />
          </mxGeometry>
        </mxCell>
        <mxCell id="ER7kpOh2NUuJ_rXaCPQg-2" value="- group: String" style="text;align=left;verticalAlign=top;spacingLeft=4;spacingRight=4;overflow=hidden;rotatable=0;points=[[0,0.5],[1,0.5]];portConstraint=eastwest;" parent="ER7kpOh2NUuJ_rXaCPQg-1" vertex="1">
          <mxGeometry y="26" width="320" height="26" as="geometry" />
        </mxCell>
        <mxCell id="ER7kpOh2NUuJ_rXaCPQg-3" value="- faculty: String" style="text;align=left;verticalAlign=top;spacingLeft=4;spacingRight=4;overflow=hidden;rotatable=0;points=[[0,0.5],[1,0.5]];portConstraint=eastwest;rounded=0;shadow=0;html=0;" parent="ER7kpOh2NUuJ_rXaCPQg-1" vertex="1">
          <mxGeometry y="52" width="320" height="26" as="geometry" />
        </mxCell>
        <mxCell id="ER7kpOh2NUuJ_rXaCPQg-5" value="" style="line;html=1;strokeWidth=1;align=left;verticalAlign=middle;spacingTop=-1;spacingLeft=3;spacingRight=3;rotatable=0;labelPosition=right;points=[];portConstraint=eastwest;" parent="ER7kpOh2NUuJ_rXaCPQg-1" vertex="1">
          <mxGeometry y="78" width="320" height="8" as="geometry" />
        </mxCell>
        <mxCell id="ER7kpOh2NUuJ_rXaCPQg-6" value="+ clone(): Student" style="text;align=left;verticalAlign=top;spacingLeft=4;spacingRight=4;overflow=hidden;rotatable=0;points=[[0,0.5],[1,0.5]];portConstraint=eastwest;" parent="ER7kpOh2NUuJ_rXaCPQg-1" vertex="1">
          <mxGeometry y="86" width="320" height="26" as="geometry" />
        </mxCell>
        <mxCell id="LNgilAPW_11R-ZjtYta1-20" value="+ setGroup(group: String): void" style="text;align=left;verticalAlign=top;spacingLeft=4;spacingRight=4;overflow=hidden;rotatable=0;points=[[0,0.5],[1,0.5]];portConstraint=eastwest;" parent="ER7kpOh2NUuJ_rXaCPQg-1" vertex="1">
          <mxGeometry y="112" width="320" height="26" as="geometry" />
        </mxCell>
        <mxCell id="LNgilAPW_11R-ZjtYta1-21" value="+ getGroup(): String" style="text;align=left;verticalAlign=top;spacingLeft=4;spacingRight=4;overflow=hidden;rotatable=0;points=[[0,0.5],[1,0.5]];portConstraint=eastwest;" parent="ER7kpOh2NUuJ_rXaCPQg-1" vertex="1">
          <mxGeometry y="138" width="320" height="26" as="geometry" />
        </mxCell>
        <mxCell id="LNgilAPW_11R-ZjtYta1-22" value="+ setFaculty(faculty: String): void" style="text;align=left;verticalAlign=top;spacingLeft=4;spacingRight=4;overflow=hidden;rotatable=0;points=[[0,0.5],[1,0.5]];portConstraint=eastwest;" parent="ER7kpOh2NUuJ_rXaCPQg-1" vertex="1">
          <mxGeometry y="164" width="320" height="26" as="geometry" />
        </mxCell>
        <mxCell id="LNgilAPW_11R-ZjtYta1-23" value="+ getFaculty(): String" style="text;align=left;verticalAlign=top;spacingLeft=4;spacingRight=4;overflow=hidden;rotatable=0;points=[[0,0.5],[1,0.5]];portConstraint=eastwest;" parent="ER7kpOh2NUuJ_rXaCPQg-1" vertex="1">
          <mxGeometry y="190" width="320" height="26" as="geometry" />
        </mxCell>
        <mxCell id="LNgilAPW_11R-ZjtYta1-26" value="+ toSringUser(): void" style="text;align=left;verticalAlign=top;spacingLeft=4;spacingRight=4;overflow=hidden;rotatable=0;points=[[0,0.5],[1,0.5]];portConstraint=eastwest;" parent="ER7kpOh2NUuJ_rXaCPQg-1" vertex="1">
          <mxGeometry y="216" width="320" height="26" as="geometry" />
        </mxCell>
        <mxCell id="LNgilAPW_11R-ZjtYta1-25" value="~ Student(source: Student)" style="text;align=left;verticalAlign=top;spacingLeft=4;spacingRight=4;overflow=hidden;rotatable=0;points=[[0,0.5],[1,0.5]];portConstraint=eastwest;fontStyle=0" parent="ER7kpOh2NUuJ_rXaCPQg-1" vertex="1">
          <mxGeometry y="242" width="320" height="26" as="geometry" />
        </mxCell>
        <mxCell id="LNgilAPW_11R-ZjtYta1-24" value="+ Student()" style="text;align=left;verticalAlign=top;spacingLeft=4;spacingRight=4;overflow=hidden;rotatable=0;points=[[0,0.5],[1,0.5]];portConstraint=eastwest;" parent="ER7kpOh2NUuJ_rXaCPQg-1" vertex="1">
          <mxGeometry y="268" width="320" height="26" as="geometry" />
        </mxCell>
        <mxCell id="LNgilAPW_11R-ZjtYta1-27" value="+ Student(id: int, name: String, surname: String, birthYear:&#xa; int, university: String, accessGrade: int, library: Library,&#xa; faculty: String, group: String)" style="text;align=left;verticalAlign=top;spacingLeft=4;spacingRight=4;overflow=hidden;rotatable=0;points=[[0,0.5],[1,0.5]];portConstraint=eastwest;" parent="ER7kpOh2NUuJ_rXaCPQg-1" vertex="1">
          <mxGeometry y="294" width="320" height="46" as="geometry" />
        </mxCell>
        <mxCell id="LNgilAPW_11R-ZjtYta1-29" value="+ Student(name: String, surname: String, birthYear: int, &#xa;university: String, accessGrade: int, library: Library, &#xa;faculty: String, group: String)" style="text;align=left;verticalAlign=top;spacingLeft=4;spacingRight=4;overflow=hidden;rotatable=0;points=[[0,0.5],[1,0.5]];portConstraint=eastwest;" parent="ER7kpOh2NUuJ_rXaCPQg-1" vertex="1">
          <mxGeometry y="340" width="320" height="50" as="geometry" />
        </mxCell>
        <mxCell id="ER7kpOh2NUuJ_rXaCPQg-18" value="User" style="swimlane;fontStyle=2;align=center;verticalAlign=top;childLayout=stackLayout;horizontal=1;startSize=26;horizontalStack=0;resizeParent=1;resizeLast=0;collapsible=1;marginBottom=0;rounded=0;shadow=0;strokeWidth=1;" parent="1" vertex="1">
          <mxGeometry x="430" y="20" width="610" height="860" as="geometry">
            <mxRectangle x="310" y="81" width="160" height="409" as="alternateBounds" />
          </mxGeometry>
        </mxCell>
        <mxCell id="ER7kpOh2NUuJ_rXaCPQg-19" value="- books: ArrayList&lt;Book&gt; " style="text;align=left;verticalAlign=top;spacingLeft=4;spacingRight=4;overflow=hidden;rotatable=0;points=[[0,0.5],[1,0.5]];portConstraint=eastwest;" parent="ER7kpOh2NUuJ_rXaCPQg-18" vertex="1">
          <mxGeometry y="26" width="610" height="26" as="geometry" />
        </mxCell>
        <mxCell id="ER7kpOh2NUuJ_rXaCPQg-20" value="- library: Library" style="text;align=left;verticalAlign=top;spacingLeft=4;spacingRight=4;overflow=hidden;rotatable=0;points=[[0,0.5],[1,0.5]];portConstraint=eastwest;rounded=0;shadow=0;html=0;" parent="ER7kpOh2NUuJ_rXaCPQg-18" vertex="1">
          <mxGeometry y="52" width="610" height="26" as="geometry" />
        </mxCell>
        <mxCell id="ER7kpOh2NUuJ_rXaCPQg-21" value="- accessGrade: int" style="text;align=left;verticalAlign=top;spacingLeft=4;spacingRight=4;overflow=hidden;rotatable=0;points=[[0,0.5],[1,0.5]];portConstraint=eastwest;rounded=0;shadow=0;html=0;" parent="ER7kpOh2NUuJ_rXaCPQg-18" vertex="1">
          <mxGeometry y="78" width="610" height="26" as="geometry" />
        </mxCell>
        <mxCell id="ER7kpOh2NUuJ_rXaCPQg-22" value="- birthYear: int" style="text;align=left;verticalAlign=top;spacingLeft=4;spacingRight=4;overflow=hidden;rotatable=0;points=[[0,0.5],[1,0.5]];portConstraint=eastwest;rounded=0;shadow=0;html=0;" parent="ER7kpOh2NUuJ_rXaCPQg-18" vertex="1">
          <mxGeometry y="104" width="610" height="26" as="geometry" />
        </mxCell>
        <mxCell id="ER7kpOh2NUuJ_rXaCPQg-23" value="- surname: String" style="text;align=left;verticalAlign=top;spacingLeft=4;spacingRight=4;overflow=hidden;rotatable=0;points=[[0,0.5],[1,0.5]];portConstraint=eastwest;rounded=0;shadow=0;html=0;" parent="ER7kpOh2NUuJ_rXaCPQg-18" vertex="1">
          <mxGeometry y="130" width="610" height="26" as="geometry" />
        </mxCell>
        <mxCell id="ER7kpOh2NUuJ_rXaCPQg-25" value="- name: String" style="text;align=left;verticalAlign=top;spacingLeft=4;spacingRight=4;overflow=hidden;rotatable=0;points=[[0,0.5],[1,0.5]];portConstraint=eastwest;" parent="ER7kpOh2NUuJ_rXaCPQg-18" vertex="1">
          <mxGeometry y="156" width="610" height="26" as="geometry" />
        </mxCell>
        <mxCell id="ER7kpOh2NUuJ_rXaCPQg-26" value="- id: int" style="text;align=left;verticalAlign=top;spacingLeft=4;spacingRight=4;overflow=hidden;rotatable=0;points=[[0,0.5],[1,0.5]];portConstraint=eastwest;" parent="ER7kpOh2NUuJ_rXaCPQg-18" vertex="1">
          <mxGeometry y="182" width="610" height="26" as="geometry" />
        </mxCell>
        <mxCell id="ER7kpOh2NUuJ_rXaCPQg-24" value="" style="line;html=1;strokeWidth=1;align=left;verticalAlign=middle;spacingTop=-1;spacingLeft=3;spacingRight=3;rotatable=0;labelPosition=right;points=[];portConstraint=eastwest;" parent="ER7kpOh2NUuJ_rXaCPQg-18" vertex="1">
          <mxGeometry y="208" width="610" height="8" as="geometry" />
        </mxCell>
        <mxCell id="LNgilAPW_11R-ZjtYta1-15" value="+ clone(): User" style="text;align=left;verticalAlign=top;spacingLeft=4;spacingRight=4;overflow=hidden;rotatable=0;points=[[0,0.5],[1,0.5]];portConstraint=eastwest;" parent="ER7kpOh2NUuJ_rXaCPQg-18" vertex="1">
          <mxGeometry y="216" width="610" height="26" as="geometry" />
        </mxCell>
        <mxCell id="LNgilAPW_11R-ZjtYta1-59" value="+ setBooks(books: ArrayList&lt;Book&gt;): void&#xa; " style="text;align=left;verticalAlign=top;spacingLeft=4;spacingRight=4;overflow=hidden;rotatable=0;points=[[0,0.5],[1,0.5]];portConstraint=eastwest;" parent="ER7kpOh2NUuJ_rXaCPQg-18" vertex="1">
          <mxGeometry y="242" width="610" height="26" as="geometry" />
        </mxCell>
        <mxCell id="LNgilAPW_11R-ZjtYta1-60" value="+ getBooksID(): String" style="text;align=left;verticalAlign=top;spacingLeft=4;spacingRight=4;overflow=hidden;rotatable=0;points=[[0,0.5],[1,0.5]];portConstraint=eastwest;" parent="ER7kpOh2NUuJ_rXaCPQg-18" vertex="1">
          <mxGeometry y="268" width="610" height="26" as="geometry" />
        </mxCell>
        <mxCell id="LNgilAPW_11R-ZjtYta1-14" value="+ setLibrary( library: Library): void" style="text;align=left;verticalAlign=top;spacingLeft=4;spacingRight=4;overflow=hidden;rotatable=0;points=[[0,0.5],[1,0.5]];portConstraint=eastwest;" parent="ER7kpOh2NUuJ_rXaCPQg-18" vertex="1">
          <mxGeometry y="294" width="610" height="26" as="geometry" />
        </mxCell>
        <mxCell id="LNgilAPW_11R-ZjtYta1-65" value="+ getLibrary(): Library" style="text;align=left;verticalAlign=top;spacingLeft=4;spacingRight=4;overflow=hidden;rotatable=0;points=[[0,0.5],[1,0.5]];portConstraint=eastwest;" parent="ER7kpOh2NUuJ_rXaCPQg-18" vertex="1">
          <mxGeometry y="320" width="610" height="26" as="geometry" />
        </mxCell>
        <mxCell id="LNgilAPW_11R-ZjtYta1-63" value="+ setAccessGrade(accessGrade: int): void" style="text;align=left;verticalAlign=top;spacingLeft=4;spacingRight=4;overflow=hidden;rotatable=0;points=[[0,0.5],[1,0.5]];portConstraint=eastwest;" parent="ER7kpOh2NUuJ_rXaCPQg-18" vertex="1">
          <mxGeometry y="346" width="610" height="26" as="geometry" />
        </mxCell>
        <mxCell id="LNgilAPW_11R-ZjtYta1-64" value="+ getAccessGrade(): int" style="text;align=left;verticalAlign=top;spacingLeft=4;spacingRight=4;overflow=hidden;rotatable=0;points=[[0,0.5],[1,0.5]];portConstraint=eastwest;" parent="ER7kpOh2NUuJ_rXaCPQg-18" vertex="1">
          <mxGeometry y="372" width="610" height="26" as="geometry" />
        </mxCell>
        <mxCell id="LNgilAPW_11R-ZjtYta1-61" value="+ setUniversity(university: String): void" style="text;align=left;verticalAlign=top;spacingLeft=4;spacingRight=4;overflow=hidden;rotatable=0;points=[[0,0.5],[1,0.5]];portConstraint=eastwest;" parent="ER7kpOh2NUuJ_rXaCPQg-18" vertex="1">
          <mxGeometry y="398" width="610" height="26" as="geometry" />
        </mxCell>
        <mxCell id="LNgilAPW_11R-ZjtYta1-78" value="+ getUniversity(): String" style="text;align=left;verticalAlign=top;spacingLeft=4;spacingRight=4;overflow=hidden;rotatable=0;points=[[0,0.5],[1,0.5]];portConstraint=eastwest;" parent="ER7kpOh2NUuJ_rXaCPQg-18" vertex="1">
          <mxGeometry y="424" width="610" height="26" as="geometry" />
        </mxCell>
        <mxCell id="LNgilAPW_11R-ZjtYta1-79" value="+ setBirthYear(birthYear: int): void" style="text;align=left;verticalAlign=top;spacingLeft=4;spacingRight=4;overflow=hidden;rotatable=0;points=[[0,0.5],[1,0.5]];portConstraint=eastwest;" parent="ER7kpOh2NUuJ_rXaCPQg-18" vertex="1">
          <mxGeometry y="450" width="610" height="26" as="geometry" />
        </mxCell>
        <mxCell id="LNgilAPW_11R-ZjtYta1-16" value="+ getBirthYear(): int" style="text;align=left;verticalAlign=top;spacingLeft=4;spacingRight=4;overflow=hidden;rotatable=0;points=[[0,0.5],[1,0.5]];portConstraint=eastwest;" parent="ER7kpOh2NUuJ_rXaCPQg-18" vertex="1">
          <mxGeometry y="476" width="610" height="26" as="geometry" />
        </mxCell>
        <mxCell id="LNgilAPW_11R-ZjtYta1-76" value="+ setSurname(surname: String): void" style="text;align=left;verticalAlign=top;spacingLeft=4;spacingRight=4;overflow=hidden;rotatable=0;points=[[0,0.5],[1,0.5]];portConstraint=eastwest;" parent="ER7kpOh2NUuJ_rXaCPQg-18" vertex="1">
          <mxGeometry y="502" width="610" height="26" as="geometry" />
        </mxCell>
        <mxCell id="LNgilAPW_11R-ZjtYta1-17" value="+ getSurname(): String" style="text;align=left;verticalAlign=top;spacingLeft=4;spacingRight=4;overflow=hidden;rotatable=0;points=[[0,0.5],[1,0.5]];portConstraint=eastwest;" parent="ER7kpOh2NUuJ_rXaCPQg-18" vertex="1">
          <mxGeometry y="528" width="610" height="26" as="geometry" />
        </mxCell>
        <mxCell id="LNgilAPW_11R-ZjtYta1-75" value="+ setName(name: String): void" style="text;align=left;verticalAlign=top;spacingLeft=4;spacingRight=4;overflow=hidden;rotatable=0;points=[[0,0.5],[1,0.5]];portConstraint=eastwest;" parent="ER7kpOh2NUuJ_rXaCPQg-18" vertex="1">
          <mxGeometry y="554" width="610" height="26" as="geometry" />
        </mxCell>
        <mxCell id="LNgilAPW_11R-ZjtYta1-74" value=" + getName(): String" style="text;align=left;verticalAlign=top;spacingLeft=4;spacingRight=4;overflow=hidden;rotatable=0;points=[[0,0.5],[1,0.5]];portConstraint=eastwest;" parent="ER7kpOh2NUuJ_rXaCPQg-18" vertex="1">
          <mxGeometry y="580" width="610" height="26" as="geometry" />
        </mxCell>
        <mxCell id="LNgilAPW_11R-ZjtYta1-18" value="+ setId(id: int): void" style="text;align=left;verticalAlign=top;spacingLeft=4;spacingRight=4;overflow=hidden;rotatable=0;points=[[0,0.5],[1,0.5]];portConstraint=eastwest;" parent="ER7kpOh2NUuJ_rXaCPQg-18" vertex="1">
          <mxGeometry y="606" width="610" height="26" as="geometry" />
        </mxCell>
        <mxCell id="LNgilAPW_11R-ZjtYta1-30" value="+ getId(): int" style="text;align=left;verticalAlign=top;spacingLeft=4;spacingRight=4;overflow=hidden;rotatable=0;points=[[0,0.5],[1,0.5]];portConstraint=eastwest;" parent="ER7kpOh2NUuJ_rXaCPQg-18" vertex="1">
          <mxGeometry y="632" width="610" height="26" as="geometry" />
        </mxCell>
        <mxCell id="LNgilAPW_11R-ZjtYta1-69" value="+ readBook(book: Book): void" style="text;align=left;verticalAlign=top;spacingLeft=4;spacingRight=4;overflow=hidden;rotatable=0;points=[[0,0.5],[1,0.5]];portConstraint=eastwest;" parent="ER7kpOh2NUuJ_rXaCPQg-18" vertex="1">
          <mxGeometry y="658" width="610" height="26" as="geometry" />
        </mxCell>
        <mxCell id="LNgilAPW_11R-ZjtYta1-70" value="+ stringToBooks(strBooks: String): ArrayList&lt;Book&gt;&#xa; " style="text;align=left;verticalAlign=top;spacingLeft=4;spacingRight=4;overflow=hidden;rotatable=0;points=[[0,0.5],[1,0.5]];portConstraint=eastwest;" parent="ER7kpOh2NUuJ_rXaCPQg-18" vertex="1">
          <mxGeometry y="684" width="610" height="26" as="geometry" />
        </mxCell>
        <mxCell id="LNgilAPW_11R-ZjtYta1-73" value="+ goToLibrary(): void" style="text;align=left;verticalAlign=top;spacingLeft=4;spacingRight=4;overflow=hidden;rotatable=0;points=[[0,0.5],[1,0.5]];portConstraint=eastwest;" parent="ER7kpOh2NUuJ_rXaCPQg-18" vertex="1">
          <mxGeometry y="710" width="610" height="26" as="geometry" />
        </mxCell>
        <mxCell id="LNgilAPW_11R-ZjtYta1-72" value="+ toStringUser(): void" style="text;align=left;verticalAlign=top;spacingLeft=4;spacingRight=4;overflow=hidden;rotatable=0;points=[[0,0.5],[1,0.5]];portConstraint=eastwest;" parent="ER7kpOh2NUuJ_rXaCPQg-18" vertex="1">
          <mxGeometry y="736" width="610" height="26" as="geometry" />
        </mxCell>
        <mxCell id="LNgilAPW_11R-ZjtYta1-68" value="+ User(source: User)" style="text;align=left;verticalAlign=top;spacingLeft=4;spacingRight=4;overflow=hidden;rotatable=0;points=[[0,0.5],[1,0.5]];portConstraint=eastwest;" parent="ER7kpOh2NUuJ_rXaCPQg-18" vertex="1">
          <mxGeometry y="762" width="610" height="26" as="geometry" />
        </mxCell>
        <mxCell id="LNgilAPW_11R-ZjtYta1-71" value="+ User( id: int, name: String, surname: String, birthYear: int, university: String, accessGrade: int, library: Library)" style="text;align=left;verticalAlign=top;spacingLeft=4;spacingRight=4;overflow=hidden;rotatable=0;points=[[0,0.5],[1,0.5]];portConstraint=eastwest;" parent="ER7kpOh2NUuJ_rXaCPQg-18" vertex="1">
          <mxGeometry y="788" width="610" height="22" as="geometry" />
        </mxCell>
        <mxCell id="LNgilAPW_11R-ZjtYta1-67" value="+ User( name: String, surname: String, birthYear: int, university: String, accessGrade: int, library: Library)" style="text;align=left;verticalAlign=top;spacingLeft=4;spacingRight=4;overflow=hidden;rotatable=0;points=[[0,0.5],[1,0.5]];portConstraint=eastwest;" parent="ER7kpOh2NUuJ_rXaCPQg-18" vertex="1">
          <mxGeometry y="810" width="610" height="18" as="geometry" />
        </mxCell>
        <mxCell id="LNgilAPW_11R-ZjtYta1-66" value="+ User()" style="text;align=left;verticalAlign=top;spacingLeft=4;spacingRight=4;overflow=hidden;rotatable=0;points=[[0,0.5],[1,0.5]];portConstraint=eastwest;" parent="ER7kpOh2NUuJ_rXaCPQg-18" vertex="1">
          <mxGeometry y="828" width="610" height="26" as="geometry" />
        </mxCell>
        <mxCell id="OY_7GIVSawIxBDgQrx9P-1" value="Library" style="swimlane;fontStyle=0;align=center;verticalAlign=top;childLayout=stackLayout;horizontal=1;startSize=26;horizontalStack=0;resizeParent=1;resizeLast=0;collapsible=1;marginBottom=0;rounded=0;shadow=0;strokeWidth=1;" parent="1" vertex="1">
          <mxGeometry x="-60" y="20" width="420" height="762" as="geometry">
            <mxRectangle x="130" y="380" width="160" height="26" as="alternateBounds" />
          </mxGeometry>
        </mxCell>
        <mxCell id="OY_7GIVSawIxBDgQrx9P-2" value="+ detele: Command" style="text;align=left;verticalAlign=top;spacingLeft=4;spacingRight=4;overflow=hidden;rotatable=0;points=[[0,0.5],[1,0.5]];portConstraint=eastwest;" parent="OY_7GIVSawIxBDgQrx9P-1" vertex="1">
          <mxGeometry y="26" width="420" height="26" as="geometry" />
        </mxCell>
        <mxCell id="OY_7GIVSawIxBDgQrx9P-3" value="+ select: SelectCommand" style="text;align=left;verticalAlign=top;spacingLeft=4;spacingRight=4;overflow=hidden;rotatable=0;points=[[0,0.5],[1,0.5]];portConstraint=eastwest;rounded=0;shadow=0;html=0;" parent="OY_7GIVSawIxBDgQrx9P-1" vertex="1">
          <mxGeometry y="52" width="420" height="26" as="geometry" />
        </mxCell>
        <mxCell id="LNgilAPW_11R-ZjtYta1-32" value="+ update: UpdateCommand" style="text;align=left;verticalAlign=top;spacingLeft=4;spacingRight=4;overflow=hidden;rotatable=0;points=[[0,0.5],[1,0.5]];portConstraint=eastwest;rounded=0;shadow=0;html=0;" parent="OY_7GIVSawIxBDgQrx9P-1" vertex="1">
          <mxGeometry y="78" width="420" height="26" as="geometry" />
        </mxCell>
        <mxCell id="LNgilAPW_11R-ZjtYta1-33" value="+ insert: Command" style="text;align=left;verticalAlign=top;spacingLeft=4;spacingRight=4;overflow=hidden;rotatable=0;points=[[0,0.5],[1,0.5]];portConstraint=eastwest;rounded=0;shadow=0;html=0;" parent="OY_7GIVSawIxBDgQrx9P-1" vertex="1">
          <mxGeometry y="104" width="420" height="26" as="geometry" />
        </mxCell>
        <mxCell id="LNgilAPW_11R-ZjtYta1-34" value="+ book: ArrayList&lt;Book&gt; " style="text;align=left;verticalAlign=top;spacingLeft=4;spacingRight=4;overflow=hidden;rotatable=0;points=[[0,0.5],[1,0.5]];portConstraint=eastwest;rounded=0;shadow=0;html=0;" parent="OY_7GIVSawIxBDgQrx9P-1" vertex="1">
          <mxGeometry y="130" width="420" height="26" as="geometry" />
        </mxCell>
        <mxCell id="LNgilAPW_11R-ZjtYta1-36" value="+ workTracker: WorkTracker" style="text;align=left;verticalAlign=top;spacingLeft=4;spacingRight=4;overflow=hidden;rotatable=0;points=[[0,0.5],[1,0.5]];portConstraint=eastwest;rounded=0;shadow=0;html=0;" parent="OY_7GIVSawIxBDgQrx9P-1" vertex="1">
          <mxGeometry y="156" width="420" height="26" as="geometry" />
        </mxCell>
        <mxCell id="LNgilAPW_11R-ZjtYta1-35" value="+ nrBooks: int" style="text;align=left;verticalAlign=top;spacingLeft=4;spacingRight=4;overflow=hidden;rotatable=0;points=[[0,0.5],[1,0.5]];portConstraint=eastwest;rounded=0;shadow=0;html=0;" parent="OY_7GIVSawIxBDgQrx9P-1" vertex="1">
          <mxGeometry y="182" width="420" height="26" as="geometry" />
        </mxCell>
        <mxCell id="LNgilAPW_11R-ZjtYta1-38" value="+ nrUsers: int" style="text;align=left;verticalAlign=top;spacingLeft=4;spacingRight=4;overflow=hidden;rotatable=0;points=[[0,0.5],[1,0.5]];portConstraint=eastwest;rounded=0;shadow=0;html=0;" parent="OY_7GIVSawIxBDgQrx9P-1" vertex="1">
          <mxGeometry y="208" width="420" height="26" as="geometry" />
        </mxCell>
        <mxCell id="LNgilAPW_11R-ZjtYta1-37" value="+ location: String" style="text;align=left;verticalAlign=top;spacingLeft=4;spacingRight=4;overflow=hidden;rotatable=0;points=[[0,0.5],[1,0.5]];portConstraint=eastwest;rounded=0;shadow=0;html=0;" parent="OY_7GIVSawIxBDgQrx9P-1" vertex="1">
          <mxGeometry y="234" width="420" height="26" as="geometry" />
        </mxCell>
        <mxCell id="LNgilAPW_11R-ZjtYta1-40" value="+ name: String" style="text;align=left;verticalAlign=top;spacingLeft=4;spacingRight=4;overflow=hidden;rotatable=0;points=[[0,0.5],[1,0.5]];portConstraint=eastwest;rounded=0;shadow=0;html=0;" parent="OY_7GIVSawIxBDgQrx9P-1" vertex="1">
          <mxGeometry y="260" width="420" height="26" as="geometry" />
        </mxCell>
        <mxCell id="LNgilAPW_11R-ZjtYta1-39" value="+ id: int" style="text;align=left;verticalAlign=top;spacingLeft=4;spacingRight=4;overflow=hidden;rotatable=0;points=[[0,0.5],[1,0.5]];portConstraint=eastwest;rounded=0;shadow=0;html=0;" parent="OY_7GIVSawIxBDgQrx9P-1" vertex="1">
          <mxGeometry y="286" width="420" height="26" as="geometry" />
        </mxCell>
        <mxCell id="OY_7GIVSawIxBDgQrx9P-4" value="" style="line;html=1;strokeWidth=1;align=left;verticalAlign=middle;spacingTop=-1;spacingLeft=3;spacingRight=3;rotatable=0;labelPosition=right;points=[];portConstraint=eastwest;" parent="OY_7GIVSawIxBDgQrx9P-1" vertex="1">
          <mxGeometry y="312" width="420" height="8" as="geometry" />
        </mxCell>
        <mxCell id="OY_7GIVSawIxBDgQrx9P-6" value="+ giveBook(book: Book, user: User): void" style="text;align=left;verticalAlign=top;spacingLeft=4;spacingRight=4;overflow=hidden;rotatable=0;points=[[0,0.5],[1,0.5]];portConstraint=eastwest;" parent="OY_7GIVSawIxBDgQrx9P-1" vertex="1">
          <mxGeometry y="320" width="420" height="26" as="geometry" />
        </mxCell>
        <mxCell id="LNgilAPW_11R-ZjtYta1-41" value="+ setLocation(location: String): void" style="text;align=left;verticalAlign=top;spacingLeft=4;spacingRight=4;overflow=hidden;rotatable=0;points=[[0,0.5],[1,0.5]];portConstraint=eastwest;" parent="OY_7GIVSawIxBDgQrx9P-1" vertex="1">
          <mxGeometry y="346" width="420" height="26" as="geometry" />
        </mxCell>
        <mxCell id="LNgilAPW_11R-ZjtYta1-43" value="+ getLocation(): String" style="text;align=left;verticalAlign=top;spacingLeft=4;spacingRight=4;overflow=hidden;rotatable=0;points=[[0,0.5],[1,0.5]];portConstraint=eastwest;" parent="OY_7GIVSawIxBDgQrx9P-1" vertex="1">
          <mxGeometry y="372" width="420" height="26" as="geometry" />
        </mxCell>
        <mxCell id="LNgilAPW_11R-ZjtYta1-42" value="+ setNrBooks(): void" style="text;align=left;verticalAlign=top;spacingLeft=4;spacingRight=4;overflow=hidden;rotatable=0;points=[[0,0.5],[1,0.5]];portConstraint=eastwest;" parent="OY_7GIVSawIxBDgQrx9P-1" vertex="1">
          <mxGeometry y="398" width="420" height="26" as="geometry" />
        </mxCell>
        <mxCell id="LNgilAPW_11R-ZjtYta1-46" value="+ getNrBooks(): int" style="text;align=left;verticalAlign=top;spacingLeft=4;spacingRight=4;overflow=hidden;rotatable=0;points=[[0,0.5],[1,0.5]];portConstraint=eastwest;" parent="OY_7GIVSawIxBDgQrx9P-1" vertex="1">
          <mxGeometry y="424" width="420" height="26" as="geometry" />
        </mxCell>
        <mxCell id="LNgilAPW_11R-ZjtYta1-47" value="+ getNrUsers(): void" style="text;align=left;verticalAlign=top;spacingLeft=4;spacingRight=4;overflow=hidden;rotatable=0;points=[[0,0.5],[1,0.5]];portConstraint=eastwest;" parent="OY_7GIVSawIxBDgQrx9P-1" vertex="1">
          <mxGeometry y="450" width="420" height="26" as="geometry" />
        </mxCell>
        <mxCell id="LNgilAPW_11R-ZjtYta1-48" value="+ setNrUsers(): int" style="text;align=left;verticalAlign=top;spacingLeft=4;spacingRight=4;overflow=hidden;rotatable=0;points=[[0,0.5],[1,0.5]];portConstraint=eastwest;" parent="OY_7GIVSawIxBDgQrx9P-1" vertex="1">
          <mxGeometry y="476" width="420" height="26" as="geometry" />
        </mxCell>
        <mxCell id="LNgilAPW_11R-ZjtYta1-49" value="+ setName(name: String): void" style="text;align=left;verticalAlign=top;spacingLeft=4;spacingRight=4;overflow=hidden;rotatable=0;points=[[0,0.5],[1,0.5]];portConstraint=eastwest;" parent="OY_7GIVSawIxBDgQrx9P-1" vertex="1">
          <mxGeometry y="502" width="420" height="26" as="geometry" />
        </mxCell>
        <mxCell id="LNgilAPW_11R-ZjtYta1-51" value="+ getName(): String" style="text;align=left;verticalAlign=top;spacingLeft=4;spacingRight=4;overflow=hidden;rotatable=0;points=[[0,0.5],[1,0.5]];portConstraint=eastwest;" parent="OY_7GIVSawIxBDgQrx9P-1" vertex="1">
          <mxGeometry y="528" width="420" height="26" as="geometry" />
        </mxCell>
        <mxCell id="LNgilAPW_11R-ZjtYta1-52" value="+ setId(id: int): void" style="text;align=left;verticalAlign=top;spacingLeft=4;spacingRight=4;overflow=hidden;rotatable=0;points=[[0,0.5],[1,0.5]];portConstraint=eastwest;" parent="OY_7GIVSawIxBDgQrx9P-1" vertex="1">
          <mxGeometry y="554" width="420" height="26" as="geometry" />
        </mxCell>
        <mxCell id="LNgilAPW_11R-ZjtYta1-53" value="+ getId(): int" style="text;align=left;verticalAlign=top;spacingLeft=4;spacingRight=4;overflow=hidden;rotatable=0;points=[[0,0.5],[1,0.5]];portConstraint=eastwest;" parent="OY_7GIVSawIxBDgQrx9P-1" vertex="1">
          <mxGeometry y="580" width="420" height="26" as="geometry" />
        </mxCell>
        <mxCell id="LNgilAPW_11R-ZjtYta1-54" value="+ getAllBooks(): ArrayList&lt;Book&gt;" style="text;align=left;verticalAlign=top;spacingLeft=4;spacingRight=4;overflow=hidden;rotatable=0;points=[[0,0.5],[1,0.5]];portConstraint=eastwest;" parent="OY_7GIVSawIxBDgQrx9P-1" vertex="1">
          <mxGeometry y="606" width="420" height="26" as="geometry" />
        </mxCell>
        <mxCell id="LNgilAPW_11R-ZjtYta1-55" value="+ toStringLib(): void" style="text;align=left;verticalAlign=top;spacingLeft=4;spacingRight=4;overflow=hidden;rotatable=0;points=[[0,0.5],[1,0.5]];portConstraint=eastwest;" parent="OY_7GIVSawIxBDgQrx9P-1" vertex="1">
          <mxGeometry y="632" width="420" height="26" as="geometry" />
        </mxCell>
        <mxCell id="LNgilAPW_11R-ZjtYta1-56" value="+ Library(workTracker: WorkTracker, insert: Command,  &#xa;update: UpdateCommand, select: SelectCommand, delete: Command)" style="text;align=left;verticalAlign=top;spacingLeft=4;spacingRight=4;overflow=hidden;rotatable=0;points=[[0,0.5],[1,0.5]];portConstraint=eastwest;" parent="OY_7GIVSawIxBDgQrx9P-1" vertex="1">
          <mxGeometry y="658" width="420" height="32" as="geometry" />
        </mxCell>
        <mxCell id="LNgilAPW_11R-ZjtYta1-57" value="+ Library(id: int, name: String, location: String)&#xa;" style="text;align=left;verticalAlign=top;spacingLeft=4;spacingRight=4;overflow=hidden;rotatable=0;points=[[0,0.5],[1,0.5]];portConstraint=eastwest;" parent="OY_7GIVSawIxBDgQrx9P-1" vertex="1">
          <mxGeometry y="690" width="420" height="26" as="geometry" />
        </mxCell>
        <mxCell id="LNgilAPW_11R-ZjtYta1-58" value="+ Library(name: String, location: String)&#xa;" style="text;align=left;verticalAlign=top;spacingLeft=4;spacingRight=4;overflow=hidden;rotatable=0;points=[[0,0.5],[1,0.5]];portConstraint=eastwest;" parent="OY_7GIVSawIxBDgQrx9P-1" vertex="1">
          <mxGeometry y="716" width="420" height="26" as="geometry" />
        </mxCell>
        <mxCell id="LNgilAPW_11R-ZjtYta1-9" value="" style="endArrow=diamondThin;shadow=0;strokeWidth=1;rounded=0;endFill=1;edgeStyle=elbowEdgeStyle;elbow=vertical;" parent="1" edge="1">
          <mxGeometry x="0.5" y="41" relative="1" as="geometry">
            <mxPoint x="360" y="300" as="sourcePoint" />
            <mxPoint x="430" y="300" as="targetPoint" />
            <mxPoint x="-40" y="32" as="offset" />
            <Array as="points">
              <mxPoint x="430" y="300" />
            </Array>
          </mxGeometry>
        </mxCell>
        <mxCell id="LNgilAPW_11R-ZjtYta1-1" value="" style="endArrow=block;shadow=0;strokeWidth=1;rounded=0;endFill=0;edgeStyle=elbowEdgeStyle;elbow=vertical;" parent="1" edge="1">
          <mxGeometry x="0.5" y="41" relative="1" as="geometry">
            <mxPoint x="1040" y="310" as="sourcePoint" />
            <mxPoint x="1110" y="310" as="targetPoint" />
            <mxPoint x="-40" y="32" as="offset" />
          </mxGeometry>
        </mxCell>
      </root>
    </mxGraphModel>
  </diagram>
  <diagram id="ebhEzN3-ztr0IvtV2nVn" name="Adapter">
    <mxGraphModel dx="1490" dy="523" grid="1" gridSize="10" guides="1" tooltips="1" connect="1" arrows="1" fold="1" page="0" pageScale="1" pageWidth="827" pageHeight="1169" math="0" shadow="0">
      <root>
        <mxCell id="0" />
        <mxCell id="1" parent="0" />
      </root>
    </mxGraphModel>
  </diagram>
  <diagram id="GgX_9MTlNxJskMZClu1C" name="Façade">
    <mxGraphModel dx="1350" dy="429" grid="1" gridSize="10" guides="1" tooltips="1" connect="1" arrows="1" fold="1" page="0" pageScale="1" pageWidth="827" pageHeight="1169" math="0" shadow="0">
      <root>
        <mxCell id="0" />
        <mxCell id="1" parent="0" />
      </root>
    </mxGraphModel>
  </diagram>
  <diagram id="9e_gbiXOlVfaKZUO2iQ6" name="State">
    <mxGraphModel dx="1750" dy="429" grid="1" gridSize="10" guides="1" tooltips="1" connect="1" arrows="1" fold="1" page="0" pageScale="1" pageWidth="827" pageHeight="1169" math="0" shadow="0">
      <root>
        <mxCell id="0" />
        <mxCell id="1" parent="0" />
        <mxCell id="HP32vR1gDKP3b37k8KDT-1" value="&lt;&lt;interface&gt;&gt;&#xa; Activity" style="swimlane;fontStyle=2;align=center;verticalAlign=top;childLayout=stackLayout;horizontal=1;startSize=40;horizontalStack=0;resizeParent=1;resizeLast=0;collapsible=1;marginBottom=0;rounded=0;shadow=0;strokeWidth=1;" vertex="1" parent="1">
          <mxGeometry x="-350" y="30" width="420" height="80" as="geometry">
            <mxRectangle x="130" y="380" width="160" height="26" as="alternateBounds" />
          </mxGeometry>
        </mxCell>
        <mxCell id="HP32vR1gDKP3b37k8KDT-2" value="+ doIt(lib: Library, usr: Student, library: Library): void" style="text;align=left;verticalAlign=top;spacingLeft=4;spacingRight=4;overflow=hidden;rotatable=0;points=[[0,0.5],[1,0.5]];portConstraint=eastwest;" vertex="1" parent="HP32vR1gDKP3b37k8KDT-1">
          <mxGeometry y="40" width="420" height="26" as="geometry" />
        </mxCell>
        <mxCell id="HP32vR1gDKP3b37k8KDT-30" value="&lt;&lt;utility&gt;&gt;&#xa; LibrarianActivity" style="swimlane;fontStyle=2;align=center;verticalAlign=top;childLayout=stackLayout;horizontal=1;startSize=40;horizontalStack=0;resizeParent=1;resizeLast=0;collapsible=1;marginBottom=0;rounded=0;shadow=0;strokeWidth=1;" vertex="1" parent="1">
          <mxGeometry x="160" y="10" width="420" height="110" as="geometry">
            <mxRectangle x="130" y="380" width="160" height="26" as="alternateBounds" />
          </mxGeometry>
        </mxCell>
        <mxCell id="HP32vR1gDKP3b37k8KDT-31" value="+ LibrarianActivity()" style="text;align=left;verticalAlign=top;spacingLeft=4;spacingRight=4;overflow=hidden;rotatable=0;points=[[0,0.5],[1,0.5]];portConstraint=eastwest;" vertex="1" parent="HP32vR1gDKP3b37k8KDT-30">
          <mxGeometry y="40" width="420" height="26" as="geometry" />
        </mxCell>
        <mxCell id="HP32vR1gDKP3b37k8KDT-37" value="" style="line;html=1;strokeWidth=1;align=left;verticalAlign=middle;spacingTop=-1;spacingLeft=3;spacingRight=3;rotatable=0;labelPosition=right;points=[];portConstraint=eastwest;" vertex="1" parent="HP32vR1gDKP3b37k8KDT-30">
          <mxGeometry y="66" width="420" height="8" as="geometry" />
        </mxCell>
        <mxCell id="HP32vR1gDKP3b37k8KDT-61" value="+ doIt(lib: Library, usr: Student, library: Library): void" style="text;align=left;verticalAlign=top;spacingLeft=4;spacingRight=4;overflow=hidden;rotatable=0;points=[[0,0.5],[1,0.5]];portConstraint=eastwest;" vertex="1" parent="HP32vR1gDKP3b37k8KDT-30">
          <mxGeometry y="74" width="420" height="26" as="geometry" />
        </mxCell>
        <mxCell id="HP32vR1gDKP3b37k8KDT-58" value="" style="edgeStyle=orthogonalEdgeStyle;rounded=0;orthogonalLoop=1;jettySize=auto;html=1;startArrow=none;startFill=0;endArrow=block;endFill=0;verticalAlign=middle;dashed=1;strokeWidth=2;" edge="1" parent="1" source="HP32vR1gDKP3b37k8KDT-44">
          <mxGeometry relative="1" as="geometry">
            <mxPoint x="-90" y="110" as="targetPoint" />
            <Array as="points">
              <mxPoint x="-110" y="266" />
              <mxPoint x="-90" y="266" />
            </Array>
          </mxGeometry>
        </mxCell>
        <mxCell id="HP32vR1gDKP3b37k8KDT-44" value="&lt;&lt;utility&gt;&gt;&#xa; UserActivity" style="swimlane;fontStyle=2;align=center;verticalAlign=top;childLayout=stackLayout;horizontal=1;startSize=40;horizontalStack=0;resizeParent=1;resizeLast=0;collapsible=1;marginBottom=0;rounded=0;shadow=0;strokeWidth=1;" vertex="1" parent="1">
          <mxGeometry x="-360" y="200" width="420" height="110" as="geometry">
            <mxRectangle x="130" y="380" width="160" height="26" as="alternateBounds" />
          </mxGeometry>
        </mxCell>
        <mxCell id="HP32vR1gDKP3b37k8KDT-45" value="+ UserActivity()" style="text;align=left;verticalAlign=top;spacingLeft=4;spacingRight=4;overflow=hidden;rotatable=0;points=[[0,0.5],[1,0.5]];portConstraint=eastwest;" vertex="1" parent="HP32vR1gDKP3b37k8KDT-44">
          <mxGeometry y="40" width="420" height="26" as="geometry" />
        </mxCell>
        <mxCell id="HP32vR1gDKP3b37k8KDT-51" value="" style="line;html=1;strokeWidth=1;align=left;verticalAlign=middle;spacingTop=-1;spacingLeft=3;spacingRight=3;rotatable=0;labelPosition=right;points=[];portConstraint=eastwest;" vertex="1" parent="HP32vR1gDKP3b37k8KDT-44">
          <mxGeometry y="66" width="420" height="8" as="geometry" />
        </mxCell>
        <mxCell id="HP32vR1gDKP3b37k8KDT-60" value="+ doIt(lib: Library, usr: Student, library: Library): void" style="text;align=left;verticalAlign=top;spacingLeft=4;spacingRight=4;overflow=hidden;rotatable=0;points=[[0,0.5],[1,0.5]];portConstraint=eastwest;" vertex="1" parent="HP32vR1gDKP3b37k8KDT-44">
          <mxGeometry y="74" width="420" height="26" as="geometry" />
        </mxCell>
        <mxCell id="HP32vR1gDKP3b37k8KDT-59" value="" style="edgeStyle=orthogonalEdgeStyle;rounded=0;orthogonalLoop=1;jettySize=auto;html=1;dashed=1;startArrow=none;startFill=0;endArrow=block;endFill=0;strokeWidth=2;entryX=1;entryY=0.5;entryDx=0;entryDy=0;exitX=-0.001;exitY=0.007;exitDx=0;exitDy=0;exitPerimeter=0;" edge="1" parent="1" source="HP32vR1gDKP3b37k8KDT-61" target="HP32vR1gDKP3b37k8KDT-2">
          <mxGeometry relative="1" as="geometry">
            <mxPoint x="260" y="83" as="sourcePoint" />
            <mxPoint x="70" y="109" as="targetPoint" />
            <Array as="points">
              <mxPoint x="160" y="83" />
            </Array>
          </mxGeometry>
        </mxCell>
      </root>
    </mxGraphModel>
  </diagram>
  <diagram id="Qvzv90HElsgcPWKwEQNh" name="Command">
    <mxGraphModel dx="1490" dy="523" grid="1" gridSize="10" guides="1" tooltips="1" connect="1" arrows="1" fold="1" page="0" pageScale="1" pageWidth="827" pageHeight="1169" math="0" shadow="0">
      <root>
        <mxCell id="0" />
        <mxCell id="1" parent="0" />
      </root>
    </mxGraphModel>
  </diagram>
</mxfile>
